<svg xmlns="http://www.w3.org/2000/svg" width="20" height="32" id="map"><path fill="#4e4e50" d="M9.996 4a5.96 5.96 0 0 1 4.246 1.76C15.375 6.891 16 8.398 16 10s-.625 3.109-1.73 4.213c-.168.166-2.238 2.225-4.273 5.441-2.02-3.211-4.082-5.262-4.238-5.414A5.95 5.95 0 0 1 4 10c0-1.602.625-3.109 1.758-4.242S8.314 4 9.996 4m0-4A9.965 9.965 0 0 0 2.93 2.93c-3.906 3.904-3.906 10.236 0 14.141 0 0 7.066 6.93 7.066 14.93 0-8 7.074-14.93 7.074-14.93 3.906-3.904 3.906-10.236 0-14.141A9.97 9.97 0 0 0 9.996 0z"></path><path fill="#4e4e50" d="M12 10a2 2 0 0 1-2.004 2C8.811 12 8 11.105 8 10s.811-2 1.996-2A2 2 0 0 1 12 10z"></path></svg>